# xmcd
#
# Track frame offsets:
#	150
#	15382
#	27922
#	40465
#	56271
#	71783
#	85664
#	99148
#	111257
#	124978
#	137013
#	149694
#	164053
#	179149
#	193374
#	205862
#	219373
#	234525
#	247066
#	262477
#
# Disc length: 3699 seconds
#
# Revision: 1
# Processed by: cddbd v1.5.2PL0 Copyright (c) Steve Scherf et al.
# Submitted via: audiograbber 1.83.01
#
DISCID=3a0e7114
DTITLE=Rodgers, Jimmie - The Singing Brakeman - The Essential Recordings - CD1
DYEAR=2012
DGENRE=Country
TTITLE0=Blue Yodel (T For Texas)
TTITLE1=My Blue Eyed Jane
TTITLE2=Dear Old Sunny South By The Sea
TTITLE3=Gambling Bar Room Blues
TTITLE4=Whisper Your Mother's Name
TTITLE5=T. B. Blues
TTITLE6=Train Whistle Blues
TTITLE7=Blue Yodel #9 (Standing On The Corner)
TTITLE8=The Soldier's Sweetheart
TTITLE9=The One Rose
TTITLE10=Jimmie The Kid
TTITLE11=The Brakeman's Blues (Yodeling The Blues Away)
TTITLE12=Ben Dewberry's Final Run
TTITLE13=Why Should I Be Lonely
TTITLE14=Waiting For A Train
TTITLE15=Moonlight And Skies
TTITLE16=Gambling Polka Dot Blues
TTITLE17=Peach Picking Time Down In Georgia
TTITLE18=Mississippi Delta Blues
TTITLE19=I'm Lonesome Too
EXTD=
EXTT0=
EXTT1=
EXTT2=
EXTT3=
EXTT4=
EXTT5=
EXTT6=
EXTT7=
EXTT8=
EXTT9=
EXTT10=
EXTT11=
EXTT12=
EXTT13=
EXTT14=
EXTT15=
EXTT16=
EXTT17=
EXTT18=
EXTT19=
PLAYORDER=
